<svg xmlns="http://www.w3.org/2000/svg" viewBox="0 0 900 720" width="900" height="720">
  <defs>
    <style>
      .t-title { font-family: -apple-system, BlinkMacSystemFont, "Segoe UI", Roboto, Helvetica, Arial, sans-serif; font-size: 28px; font-weight: 800; fill: #38bdf8; }
      .t-sub { font-family: -apple-system, BlinkMacSystemFont, "Segoe UI", Roboto, Helvetica, Arial, sans-serif; font-size: 13px; fill: #94a3b8; }
      .t-phase { font-family: -apple-system, BlinkMacSystemFont, "Segoe UI", Roboto, Helvetica, Arial, sans-serif; font-size: 18px; font-weight: bold; fill: #cbd5e1; letter-spacing: 2px; }
      .t-label { font-family: -apple-system, BlinkMacSystemFont, "Segoe UI", Roboto, Helvetica, Arial, sans-serif; font-size: 12px; fill: #94a3b8; font-weight: 600; }
      .t-talk { font-family: -apple-system, BlinkMacSystemFont, "Segoe UI", Roboto, Helvetica, Arial, sans-serif; font-size: 13px; fill: #f1f5f9; }
      .t-em { font-weight: bold; fill: #38bdf8; }
      .t-warn { font-weight: bold; fill: #ef4444; }
      .t-code { font-family: "SFMono-Regular", Consolas, "Liberation Mono", Menlo, Courier, monospace; font-size: 12px; fill: #38bdf8; font-weight: bold; }
      .t-big-code { font-family: "SFMono-Regular", Consolas, "Liberation Mono", Menlo, Courier, monospace; font-size: 14px; fill: #4ade80; font-weight: bold; }

      .sk { stroke: #cbd5e1; stroke-width: 2.5px; stroke-linecap: round; stroke-linejoin: round; fill: none; }
      .sk-thin { stroke: #94a3b8; stroke-width: 1.5px; stroke-linecap: round; fill: none; }
      .box { fill: #0f172a; stroke: #334155; stroke-width: 2px; }
      .box-blue { fill: #0f172a; stroke: #38bdf8; stroke-width: 2px; }
      .box-green { fill: #0f172a; stroke: #4ade80; stroke-width: 2px; }
      .vault { fill: #1e293b; stroke: #475569; stroke-width: 2px; stroke-dasharray: 6 4; }

      .belt { stroke: #475569; stroke-width: 6px; stroke-dasharray: 16 8; animation: beltMove 2s linear infinite; }
      .blink { animation: blink 2s ease-in-out infinite; }
      .gear1 { animation: spin 3s linear infinite; transform-origin: center; }
      .gear2 { animation: spinR 3s linear infinite; transform-origin: center; }
      .glow-pulse { animation: glowPulse 2s ease-in-out infinite; }
      .arrow-flow { stroke-dasharray: 6 4; animation: flowDash 1.5s linear infinite; }

      @keyframes beltMove { to { stroke-dashoffset: -48; } }
      @keyframes blink { 0%,100% { opacity: 0.5; } 50% { opacity: 1; } }
      @keyframes spin { to { transform: rotate(360deg); } }
      @keyframes spinR { to { transform: rotate(-360deg); } }
      @keyframes glowPulse { 0%,100% { opacity: 0.7; } 50% { opacity: 1; } }
      @keyframes flowDash { to { stroke-dashoffset: -20; } }
    </style>
    <linearGradient id="bg" x1="0%" y1="0%" x2="100%" y2="100%">
      <stop offset="0%" stop-color="#020617" />
      <stop offset="100%" stop-color="#0f172a" />
    </linearGradient>
  </defs>

  <!-- Background -->
  <rect width="900" height="720" fill="url(#bg)" rx="16" />
  <rect width="900" height="720" fill="none" stroke="#1e293b" stroke-width="2" rx="16" />

  <!-- Title -->
  <text x="450" y="42" class="t-title" text-anchor="middle">The SkillPointer Pipeline</text>
  <text x="450" y="62" class="t-sub" text-anchor="middle">How your AI agent accesses 2,000+ skills without blowing up its context window</text>

  <!-- ═══════════════════════ PHASE 1 ═══════════════════════ -->
  <text x="40" y="110" class="t-phase">PHASE 1 - YOU ASK A QUESTION</text>
  <line x1="40" y1="120" x2="860" y2="120" stroke="#334155" stroke-width="1" />

  <!-- Stick figure user sitting at desk -->
  <circle cx="90" cy="160" r="14" class="sk" />
  <line x1="90" y1="174" x2="90" y2="210" class="sk" />
  <path d="M 72 192 Q 90 182 108 188" class="sk" />
  <path d="M 76 240 L 90 210 L 104 240" class="sk" />
  <!-- Desk -->
  <line x1="110" y1="200" x2="155" y2="200" stroke="#64748b" stroke-width="4" stroke-linecap="round" />
  <line x1="130" y1="200" x2="130" y2="240" stroke="#64748b" stroke-width="3" />
  <!-- Monitor -->
  <rect x="115" y="175" width="30" height="22" rx="3" fill="#334155" stroke="#64748b" stroke-width="1.5" />
  <rect x="118" y="178" width="24" height="14" rx="2" fill="#0f172a" />
  <rect x="120" y="181" width="12" height="2" rx="1" fill="#38bdf8" class="blink" />
  <rect x="120" y="185" width="18" height="2" rx="1" fill="#475569" />
  <line x1="130" y1="197" x2="130" y2="200" stroke="#64748b" stroke-width="2" />

  <!-- Speech bubble -->
  <rect x="180" y="140" width="290" height="50" rx="10" class="box-blue" />
  <polygon points="180,170 168,180 180,178" fill="#0f172a" stroke="#38bdf8" stroke-width="2" />
  <text x="325" y="162" class="t-talk" text-anchor="middle">"Build me a <tspan class="t-em">secure REST API</tspan></text>
  <text x="325" y="178" class="t-talk" text-anchor="middle">with JWT auth and rate limiting"</text>

  <!-- Arrow from prompt going right -->
  <line x1="490" y1="165" x2="560" y2="165" stroke="#38bdf8" stroke-width="2" class="arrow-flow" />
  <polygon points="555,160 565,165 555,170" fill="#38bdf8" />

  <!-- The task package -->
  <rect x="575" y="145" width="130" height="45" rx="8" class="box" />
  <text x="640" y="165" class="t-talk t-warn" text-anchor="middle">Incoming Task</text>
  <text x="640" y="180" class="t-label" text-anchor="middle">0 skills loaded yet</text>

  <!-- funny label -->
  <text x="640" y="210" class="t-label" text-anchor="middle" fill="#64748b" font-style="italic">(the AI has no idea what to do)</text>

  <!-- Conveyor belt -->
  <line x1="40" y1="250" x2="860" y2="250" class="belt" />
  <text x="450" y="270" class="t-label" text-anchor="middle">- conveyor belt of tasks -</text>

  <!-- ═══════════════════════ PHASE 2 ═══════════════════════ -->
  <text x="40" y="320" class="t-phase">PHASE 2 - THE POINTER DOES ITS THING</text>
  <line x1="40" y1="330" x2="860" y2="330" stroke="#334155" stroke-width="1" />

  <!-- Pointer Card (big, prominent) -->
  <rect x="60" y="355" width="200" height="100" rx="10" fill="#f8fafc" stroke="#94a3b8" stroke-width="2" />
  <!-- Card content -->
  <rect x="75" y="370" width="80" height="5" rx="2" fill="#ef4444" />
  <text x="160" y="378" class="t-code" text-anchor="middle" fill="#0f172a" font-size="11px">SKILL POINTER</text>
  <rect x="75" y="390" width="170" height="3" rx="1" fill="#cbd5e1" />
  <rect x="75" y="400" width="140" height="3" rx="1" fill="#cbd5e1" />
  <rect x="75" y="410" width="160" height="3" rx="1" fill="#cbd5e1" />
  <text x="160" y="440" class="t-code" text-anchor="middle" fill="#475569" font-size="10px">backend-dev-category-pointer</text>

  <!-- Arrow from card to robot -->
  <line x1="270" y1="405" x2="330" y2="405" stroke="#38bdf8" stroke-width="2" class="arrow-flow" />
  <polygon points="325,400 335,405 325,410" fill="#38bdf8" />

  <!-- Robot AI reading the card -->
  <rect x="355" y="370" width="35" height="30" rx="5" class="sk" />
  <!-- Antenna -->
  <line x1="372" y1="362" x2="372" y2="370" class="sk" />
  <circle cx="372" cy="359" r="4" fill="#38bdf8" class="blink" />
  <!-- Eyes -->
  <circle cx="365" cy="385" r="3" fill="#38bdf8" />
  <circle cx="380" cy="385" r="3" fill="#38bdf8" />
  <!-- Mouth (happy) -->
  <path d="M 364 392 Q 372 398 381 392" stroke="#38bdf8" stroke-width="1.5" fill="none" />
  <!-- Body -->
  <line x1="372" y1="400" x2="372" y2="440" class="sk" />
  <!-- Arms -->
  <path d="M 372 410 L 348 425" class="sk" />
  <path d="M 372 410 L 396 425" class="sk" />
  <!-- Legs -->
  <path d="M 372 440 L 357 465" class="sk" />
  <path d="M 372 440 L 387 465" class="sk" />

  <!-- Speech bubble from robot -->
  <rect x="420" y="350" width="420" height="55" rx="10" class="box-blue" />
  <polygon points="420,385 408,395 420,393" fill="#0f172a" stroke="#38bdf8" stroke-width="2" />
  <text x="630" y="372" class="t-talk" text-anchor="middle">"This pointer says: <tspan class="t-em">Don't guess!</tspan> Go read the</text>
  <text x="630" y="390" class="t-talk" text-anchor="middle">hidden vault at <tspan class="t-code">~/.opencode-skill-libraries/backend-dev/</tspan>"</text>

  <!-- funny label -->
  <text x="630" y="435" class="t-label" text-anchor="middle" fill="#64748b" font-style="italic">(the AI now knows exactly where to look)</text>

  <!-- ═══════════════════════ PHASE 3 ═══════════════════════ -->
  <text x="40" y="510" class="t-phase">PHASE 3 - GRAB THE SKILL, SHIP THE CODE</text>
  <line x1="40" y1="520" x2="860" y2="520" stroke="#334155" stroke-width="1" />

  <!-- The Hidden Vault -->
  <rect x="40" y="545" width="220" height="110" rx="10" class="vault" />
  <text x="150" y="568" class="t-code" text-anchor="middle">~/.opencode-skill-libraries/</text>
  
  <!-- Folders (dark, dormant) -->
  <rect x="55" y="585" width="18" height="22" rx="2" fill="#334155" stroke="#475569" stroke-width="1" />
  <rect x="80" y="585" width="18" height="22" rx="2" fill="#334155" stroke="#475569" stroke-width="1" />
  <!-- THE ONE glowing folder -->
  <rect x="105" y="580" width="22" height="27" rx="3" fill="#38bdf8" stroke="#fff" stroke-width="1.5" class="glow-pulse" />
  <text x="116" y="598" font-size="8" fill="#020617" text-anchor="middle" font-weight="bold">API</text>
  
  <rect x="135" y="585" width="18" height="22" rx="2" fill="#334155" stroke="#475569" stroke-width="1" />
  <rect x="160" y="585" width="18" height="22" rx="2" fill="#334155" stroke="#475569" stroke-width="1" />
  <rect x="185" y="585" width="18" height="22" rx="2" fill="#334155" stroke="#475569" stroke-width="1" />
  <rect x="210" y="585" width="18" height="22" rx="2" fill="#334155" stroke="#475569" stroke-width="1" />
  <text x="150" y="645" class="t-label" text-anchor="middle">2,000+ skills sit here quietly</text>

  <!-- Arrow from vault to LLM -->
  <line x1="270" y1="595" x2="350" y2="595" stroke="#38bdf8" stroke-width="2" class="arrow-flow" />
  <polygon points="345,590 355,595 345,600" fill="#38bdf8" />
  <text x="310" y="585" class="t-label" text-anchor="middle" fill="#38bdf8">reads 1 file</text>

  <!-- LLM Engine Box -->
  <rect x="365" y="555" width="170" height="85" rx="12" class="box-blue" />
  <text x="450" y="578" class="t-talk t-em" text-anchor="middle">LLM ENGINE</text>
  <!-- Gears -->
  <circle cx="420" cy="610" r="12" fill="#1e293b" stroke="#475569" stroke-width="2" class="gear1" style="transform-origin: 420px 610px;" />
  <circle cx="455" cy="605" r="16" fill="#1e293b" stroke="#475569" stroke-width="2" class="gear2" style="transform-origin: 455px 605px;" />
  <text x="450" y="630" class="t-label" text-anchor="middle" fill="#38bdf8">skill + prompt = magic</text>

  <!-- Arrow from LLM to Output -->
  <line x1="545" y1="595" x2="620" y2="595" stroke="#4ade80" stroke-width="2" class="arrow-flow" />
  <polygon points="615,590 625,595 615,600" fill="#4ade80" />

  <!-- Output: Beautiful Code -->
  <rect x="640" y="555" width="200" height="85" rx="12" class="box-green" />
  <text x="740" y="578" class="t-big-code" text-anchor="middle">PERFECT CODE</text>
  <!-- Code lines -->
  <rect x="660" y="590" width="80" height="4" rx="2" fill="#4ade80" opacity="0.8" />
  <rect x="660" y="600" width="120" height="4" rx="2" fill="#4ade80" opacity="0.6" />
  <rect x="660" y="610" width="60" height="4" rx="2" fill="#4ade80" opacity="0.5" />
  <rect x="660" y="620" width="100" height="4" rx="2" fill="#4ade80" opacity="0.4" />
  <text x="740" y="660" class="t-label" text-anchor="middle" fill="#4ade80" font-style="italic">secure, tested, production-ready</text>

  <!-- Bottom tagline -->
  <text x="450" y="705" class="t-sub" text-anchor="middle" fill="#64748b">Startup context: ~255 tokens (35 pointers) instead of ~80,000 tokens (2,004 skill descriptions) - 99.7% reduction</text>

</svg>
